<svg fill="none" height="256" viewBox="0 0 256 256" width="256" xmlns="http://www.w3.org/2000/svg" xmlns:xlink="http://www.w3.org/1999/xlink"><linearGradient id="a" gradientUnits="userSpaceOnUse" x1="36" x2="220" y1="24" y2="232"><stop offset="0" stop-color="#0f172a"/><stop offset="1" stop-color="#1e293b"/></linearGradient><linearGradient id="b" gradientUnits="userSpaceOnUse" x1="52" x2="164" y1="76" y2="194"><stop offset="0" stop-color="#2dd4bf"/><stop offset="1" stop-color="#a3e635"/></linearGradient><linearGradient id="c" gradientUnits="userSpaceOnUse" x1="128" x2="220" y1="96" y2="196"><stop offset="0" stop-color="#c7f9cc"/><stop offset="1" stop-color="#22c55e"/></linearGradient><filter id="d" color-interpolation-filters="sRGB" filterUnits="userSpaceOnUse" height="224" width="224" x="16" y="16"><feFlood flood-opacity="0" result="BackgroundImageFix"/><feColorMatrix in="SourceAlpha" result="hardAlpha" type="matrix" values="0 0 0 0 0 0 0 0 0 0 0 0 0 0 0 0 0 0 127 0"/><feOffset dy="10"/><feGaussianBlur stdDeviation="12"/><feComposite in2="hardAlpha" operator="out"/><feColorMatrix type="matrix" values="0 0 0 0 0.0313725 0 0 0 0 0.0666667 0 0 0 0 0.133333 0 0 0 0.36 0"/><feBlend in2="BackgroundImageFix" mode="normal" result="effect1_dropShadow_1_1"/><feBlend in="SourceGraphic" in2="effect1_dropShadow_1_1" mode="normal" result="shape"/></filter><g filter="url(#d)"><rect fill="url(#a)" height="208" rx="52" width="208" x="24" y="24"/><rect height="205" rx="50.5" stroke="#c7f9cc" stroke-opacity=".14" stroke-width="3" width="205" x="25.5" y="25.5"/><g fill="url(#b)"><rect height="32" rx="16" width="104" x="50" y="62"/><rect height="32" rx="16" width="104" x="50" y="112"/><rect height="32" rx="16" width="104" x="50" y="162"/><rect height="32" opacity=".08" rx="16" width="104" x="50" y="62"/><rect height="32" opacity=".08" rx="16" width="104" x="50" y="112"/><rect height="32" opacity=".08" rx="16" width="104" x="50" y="162"/></g><path d="m167 86c28.167 0 51 22.833 51 51s-22.833 51-51 51-51-22.833-51-51 22.833-51 51-51z" stroke="url(#c)" stroke-width="16"/><path d="m198 169 20 20" stroke="url(#c)" stroke-linecap="round" stroke-width="16"/><circle cx="167" cy="137" fill="#0f172a" fill-opacity=".38" r="28"/><path d="m152 137h30" stroke="url(#c)" stroke-linecap="round" stroke-width="10"/><path d="m167 122v30" stroke="url(#c)" stroke-linecap="round" stroke-width="10"/></g></svg>